<svg width="139" height="137" viewBox="0 0 139 137" fill="none" xmlns="http://www.w3.org/2000/svg">
<rect width="139" height="137" rx="12" fill="#529C4F"/>
<path d="M69.3446 35.2879C87.654 35.2879 102.514 50.1669 102.514 68.5C102.514 86.8331 87.654 101.712 69.3446 101.712C51.0351 101.712 36.1753 86.8331 36.1753 68.5C36.1753 50.1669 51.0351 35.2879 69.3446 35.2879ZM69.3446 95.0697C84.0054 95.0697 95.88 83.1798 95.88 68.5C95.88 53.8202 84.0054 41.9303 69.3446 41.9303C54.6837 41.9303 42.8091 53.8202 42.8091 68.5C42.8091 83.1798 54.6837 95.0697 69.3446 95.0697ZM81.0732 52.06L85.7634 56.7562L69.3446 73.1962L64.6544 68.5L81.0732 52.06V52.06Z" fill="white"/>
</svg>
