<svg width="176" height="176" viewBox="0 0 176 176" fill="none" xmlns="http://www.w3.org/2000/svg">
<style>
    path {
      fill: black;
    }
    @media (prefers-color-scheme: dark)  {
      path {
        fill: white;
      }
    }
  </style>
<path d="M87.7412 14.6424C128.102 14.6424 160.859 47.4415 160.859 87.8546C160.859 128.268 128.102 161.067 87.7412 161.067C47.3803 161.067 14.6235 128.268 14.6235 87.8546C14.6235 47.4415 47.3803 14.6424 87.7412 14.6424ZM87.7412 146.424C120.059 146.424 146.235 120.214 146.235 87.8546C146.235 55.4948 120.059 29.2849 87.7412 29.2849C55.4232 29.2849 29.2471 55.4948 29.2471 87.8546C29.2471 120.214 55.4232 146.424 87.7412 146.424ZM113.596 51.6146L123.934 61.9667L87.7412 98.2067L77.4024 87.8546L113.596 51.6146V51.6146Z" class="path"/>
</svg>
